<svg xmlns="http://www.w3.org/2000/svg" xmlns:xlink="http://www.w3.org/1999/xlink" viewBox="0 0 604.18 92.28"><defs><style>.cls-1{fill:none;}.cls-2{clip-path:url(#clip-path);}.cls-3{fill:#fff;}.cls-4{fill:#dcddde;}.cls-5{fill:#c7c8ca;}.cls-6{fill:#b1b3b6;}.cls-7{fill:#9d9fa2;}.cls-8{fill:#8a8c8e;}.cls-9{fill:#77787b;}.cls-10{fill:#636466;}</style><clipPath id="clip-path" transform="translate(0 0)"><rect class="cls-1" x="86.29" width="517.89" height="92.28"/></clipPath></defs><title>logo-white</title><g id="Layer_2" data-name="Layer 2"><g id="Layer_1-2" data-name="Layer 1"><g class="cls-2"><path class="cls-3" d="M100.18.75h21.87c15.47,0,18.11,5.41,18.11,22,0,17.85-2.9,20.74-11.44,21.87v.25c10.05,1.89,12.06,5.28,12.06,20.75,0,19.61-2.51,25.89-20.86,25.89H100.18Zm12.57,39H120c7.54,0,8.3-1.51,8.3-16.35,0-10.31-1.64-12.82-9.68-12.82h-5.91Zm0,42h7.79c7.17,0,8.43-2.14,8.43-16.47,0-13.7-1.13-15.72-8-15.72h-8.17Z" transform="translate(0 0)"/><rect class="cls-3" x="148.7" y="0.75" width="12.57" height="90.77"/><polygon class="cls-3" points="170.2 0.75 182.77 0.75 182.77 80.96 203.89 80.96 203.89 91.52 170.2 91.52 170.2 0.75"/><path class="cls-3" d="M209.8.75H230c20.37,0,22,6.79,22,33.19V61c0,23.26-4.15,30.55-24,30.55H209.8ZM222.37,81h6c9.3,0,11.06-4.9,11.06-20.49V29.29c0-13.45-1.38-18-12.07-18h-5Z" transform="translate(0 0)"/><path class="cls-3" d="M260.59,23.89c0-12.7,4.15-23.89,21.25-23.89,16.22,0,21.37,8.42,21.37,22.5V65.37c0,7.55-2.14,14.84-5.28,18.36l.62-1.26H310v9c-7,0-15.09,0-21.11,0a34.1,34.1,0,0,1-7.05.76c-16.09,0-21.25-8.43-21.25-22.51Zm12.57,46.64c0,7.79,3.52,11.94,8.68,11.94s8.8-4.15,8.8-11.94V22.88c0-8.92-3-13.07-8.8-13.07s-8.68,4.15-8.68,13.07Z" transform="translate(0 0)"/><path class="cls-3" d="M356.77,71c0,10.56-4.15,21.25-21.25,21.25S314.15,81.59,314.15,71V.75h12.57V73.17c0,6.16,2.26,9.3,8.8,9.3s8.68-3.14,8.68-9.3V.75h12.57Z" transform="translate(0 0)"/><path class="cls-3" d="M380.28.75h14.58l18.48,90.77H400.77l-4.15-23.13H377l-4.15,23.13H360.29Zm-1.39,57.08h16l-7.79-43.75h-.26Z" transform="translate(0 0)"/><path class="cls-3" d="M419.37.75h20.24c20.37,0,22,6.79,22,33.19V61c0,23.26-4.14,30.55-24,30.55H419.37ZM432,81h6c9.3,0,11.06-4.9,11.06-20.49V29.29c0-13.45-1.38-18-12.07-18h-5Z" transform="translate(0 0)"/><path class="cls-3" d="M470.54.75H490c18.35,0,20.24,4.91,20.24,24.77,0,12.2-1.64,17.48-11.94,20.62v.25c8.54.88,11.43,5.28,11.43,13.83V80c0,3.76,0,7.72,0,11.57H497.18c0-2.45,0-4.68,0-8.39V62.86c0-8.55-1.5-10.81-9.8-10.81h-4.28V91.52H470.54Zm12.57,40.74h3.27c9.93,0,11.32-1.89,11.32-15.47s-.76-14.7-8.55-14.7h-6Z" transform="translate(0 0)"/><path class="cls-3" d="M536.17.75h14.58l18.48,90.77H556.66l-4.15-23.13H532.9l-4.15,23.13H516.18Zm-1.39,57.08h16L543,14.08h-.26Z" transform="translate(0 0)"/><polygon class="cls-3" points="561.43 0.75 604.18 0.75 604.18 11.31 589.09 11.31 589.09 91.52 576.52 91.52 576.52 11.31 561.43 11.31 561.43 0.75"/></g><polygon class="cls-3" points="12.83 78.74 0 91.54 90.87 91.54 78.09 78.74 12.83 78.74"/><polygon class="cls-4" points="0.02 91.51 12.83 78.74 12.83 39.48 0.02 26.65 0.02 91.51"/><polygon class="cls-5" points="0.02 26.66 12.79 39.47 51.93 39.47 64.76 26.66 0.02 26.66"/><polygon class="cls-6" points="64.76 26.68 51.95 39.45 51.95 52.74 64.76 65.57 64.76 26.68"/><polygon class="cls-7" points="64.76 65.57 51.98 52.76 38.84 52.76 26.01 65.57 64.76 65.57"/><polygon class="cls-8" points="26.03 0.77 38.83 13.55 38.83 52.76 26.03 65.59 26.03 0.77"/><polygon class="cls-9" points="26.03 0.77 38.82 13.56 78.07 13.56 90.9 0.75 26.03 0.77"/><polygon class="cls-10" points="78.08 13.56 78.08 78.77 90.89 91.54 90.89 0.75 78.08 13.56"/></g></g></svg>